<?xml version="1.0" encoding="utf-8"?>
<svg viewBox="285.178 146.821 36.71 33.148" xmlns="http://www.w3.org/2000/svg">
  <path d="M 303.454 151.895 C 303.368 151.814 303.28 151.732 303.192 151.649 C 301.349 149.919 299.193 147.895 295.444 147.895 C 287.587 147.895 281.807 157.895 288.138 165.895 C 294.469 173.895 301.449 178.895 303.454 179.895 C 305.437 178.895 312.417 173.895 318.75 165.895 C 325.082 157.895 319.299 147.895 311.444 147.895 C 307.645 147.895 305.467 149.974 303.639 151.719 C 303.577 151.778 303.516 151.837 303.454 151.895 Z M 303.45 177.107 C 306.025 175.418 311.647 171.002 316.868 164.405 C 322.016 157.902 317.195 150.295 311.444 150.295 C 308.614 150.295 307.065 151.771 305.164 153.581 L 303.47 155.194 L 301.816 153.649 C 301.765 153.601 301.715 153.554 301.665 153.507 C 299.753 151.719 298.23 150.295 295.444 150.295 C 289.692 150.295 284.873 157.901 290.02 164.406 C 295.246 171.008 300.869 175.423 303.45 177.107 Z" clip-rule="evenodd" fill-rule="evenodd" fill="#332E69" transform="matrix(1, 0, 0, 1, -2.842170943040401e-14, 0)"/>
</svg>