<svg width="48" height="48" viewBox="0 0 48 48" fill="none" xmlns="http://www.w3.org/2000/svg" xmlns:xlink="http://www.w3.org/1999/xlink">
<path d="M27.2,26L20.8,26L20.8,28.4L27.2,28.4L27.2,26ZM12.8,26L17.2,26L17.2,28.4L12.8,28.4L12.8,26ZM35.2,26L30.8,26L30.8,28.4L35.2,28.4L35.2,26Z" fill="#150D2C" fill-opacity="0.88"/>
<path d="M16.782,8.8C15.641,8.8 14.532,9.175 13.626,9.868C12.72,10.56 12.066,11.532 11.766,12.632L10.28,18.078L7.668,16.336L6.336,18.332L9.382,20.364L7.826,22.958C7.155,24.076 6.8,25.356 6.8,26.66L6.8,35C6.8,35.683 6.935,36.359 7.196,36.99C7.457,37.621 7.84,38.194 8.323,38.677C8.806,39.16 9.379,39.543 10.01,39.804C10.641,40.065 11.317,40.2 12,40.2C12.683,40.2 13.359,40.065 13.99,39.804C14.621,39.543 15.194,39.16 15.677,38.677C16.16,38.194 16.543,37.621 16.804,36.99C17.065,36.359 17.2,35.683 17.2,35L17.2,33.2L30.8,33.2L30.8,35C30.8,36.379 31.348,37.702 32.323,38.677C33.298,39.652 34.621,40.2 36,40.2C37.379,40.2 38.702,39.652 39.677,38.677C40.652,37.702 41.2,36.379 41.2,35L41.2,26.662C41.2,25.357 40.845,24.077 40.174,22.958L38.618,20.364L41.664,18.332L40.332,16.336L37.648,18.126L35.768,12.382C35.427,11.341 34.766,10.433 33.879,9.79C32.991,9.147 31.924,8.8 30.828,8.8L16.782,8.8ZM38.8,30.8L38.8,26.662C38.8,25.792 38.564,24.938 38.116,24.192L36.298,21.162C36.2,21.187 36.099,21.2 35.998,21.2L12,21.2C11.9,21.2 11.801,21.187 11.704,21.162L9.884,24.192C9.437,24.938 9.201,25.792 9.202,26.662L9.202,30.8L38.8,30.8ZM33.488,13.13L35.344,18.8L12.57,18.8L14.08,13.264C14.242,12.671 14.594,12.148 15.082,11.775C15.57,11.402 16.168,11.2 16.782,11.2L30.828,11.2C31.418,11.2 31.993,11.387 32.471,11.734C32.949,12.08 33.305,12.569 33.488,13.13ZM9.2,33.2L9.2,35C9.2,35.743 9.495,36.455 10.02,36.98C10.545,37.505 11.257,37.8 12,37.8C12.743,37.8 13.455,37.505 13.98,36.98C14.505,36.455 14.8,35.743 14.8,35L14.8,33.2L9.2,33.2ZM38.8,33.2L38.8,35C38.8,35.743 38.505,36.455 37.98,36.98C37.455,37.505 36.743,37.8 36,37.8C35.257,37.8 34.545,37.505 34.02,36.98C33.495,36.455 33.2,35.743 33.2,35L33.2,33.2L38.8,33.2Z" clip-rule="evenodd" fill-rule="evenodd" fill="#150D2C" fill-opacity="0.88"/>
</svg>
