<?xml version="1.0" encoding="utf-8"?>
<svg viewBox="285.178 146.821 36.71 33.148" xmlns="http://www.w3.org/2000/svg">
  <path d="M 303.454 151.895 C 303.368 151.814 303.28 151.732 303.192 151.649 C 301.349 149.919 299.193 147.895 295.444 147.895 C 287.587 147.895 281.807 157.895 288.138 165.895 C 294.469 173.895 301.449 178.895 303.454 179.895 C 305.437 178.895 312.417 173.895 318.75 165.895 C 325.082 157.895 319.299 147.895 311.444 147.895 C 307.645 147.895 305.467 149.974 303.639 151.719 C 303.577 151.778 303.516 151.837 303.454 151.895 Z M 303.45 177.107 C 306.025 175.418 311.647 171.002 316.868 164.405 C 322.016 157.902 317.195 150.295 311.444 150.295 C 308.614 150.295 307.065 151.771 305.164 153.581 L 303.47 155.194 L 301.816 153.649 C 301.765 153.601 301.715 153.554 301.665 153.507 C 299.753 151.719 298.23 150.295 295.444 150.295 C 289.692 150.295 284.873 157.901 290.02 164.406 C 295.246 171.008 300.869 175.423 303.45 177.107 Z" clip-rule="evenodd" fill-rule="evenodd" fill="#332E69" transform="matrix(1, 0, 0, 1, -2.842170943040401e-14, 0)"/>
  <path fill="rgb(255,0,0)" stroke="rgb(255,0,0)" stroke-width="0" opacity="0.9803921568627451" d="M 294.668 171.211 C 293.738 170.638 293.21 170.013 292.663 169.206 C 292.269 168.625 291.903 167.956 291.636 167.232 C 291.415 167.115 291.24 167.01 291.135 166.915 C 290.89 166.694 291.035 166.653 290.849 166.438 C 290.5 166.032 289.388 165.387 288.844 164.623 C 288.252 163.793 287.72 162.563 287.507 161.568 C 287.339 160.782 287.361 160.133 287.456 159.306 C 287.404 159.101 287.358 158.899 287.316 158.704 C 287.121 157.793 287.006 157.015 287.316 156.031 C 287.718 154.755 289.008 152.676 290.085 151.734 C 290.51 151.363 290.963 151.084 291.438 150.875 C 292.255 150.342 293.225 150.01 294.095 149.825 C 295.052 149.621 295.909 149.507 296.96 149.825 C 297.733 150.059 298.911 150.798 299.883 151.466 C 300.842 151.429 301.898 151.561 302.777 151.886 C 303.151 151.477 303.582 151.039 304.025 150.779 C 305.183 150.101 306.767 149.495 308.417 149.252 C 310.28 148.977 312.982 148.89 314.718 149.443 C 316.239 149.927 317.562 150.945 318.442 152.021 C 319.274 153.037 319.694 154.225 319.969 155.649 C 320.294 157.325 320.282 159.981 319.969 161.568 C 319.721 162.83 319.282 163.679 318.633 164.623 C 317.941 165.631 316.801 166.64 315.864 167.392 C 315.016 168.073 314.289 168.066 313.286 169.015 C 311.703 170.513 309.133 175.213 307.462 176.558 C 306.398 177.414 305.525 177.521 304.598 177.704 C 303.747 177.871 303.061 177.994 302.115 177.704 C 300.836 177.311 298.692 176.247 297.628 174.935 C 297.05 174.222 296.857 173.164 296.639 172.128 C 295.888 171.847 295.182 171.528 294.668 171.211 Z" style="fill: rgb(51, 46, 105); fill-opacity: 1; fill-rule: evenodd; stroke: none; stroke-dasharray: none; stroke-dashoffset: 0px; stroke-linecap: butt; stroke-linejoin: miter; stroke-miterlimit: 4; stroke-opacity: 1; stroke-width: 1px; paint-order: normal; vector-effect: none; opacity: 1; mix-blend-mode: normal; isolation: auto;" transform="matrix(1, 0, 0, 1, -2.842170943040401e-14, 0)"/>
</svg>