<svg width="48" height="48" viewBox="0 0 48 48" fill="none" xmlns="http://www.w3.org/2000/svg" xmlns:xlink="http://www.w3.org/1999/xlink">
<path d="M32,16C32,20.418 28.418,24 24,24C19.582,24 16,20.418 16,16C16,11.582 19.582,8 24,8C28.418,8 32,11.582 32,16ZM29.6,16C29.6,19.093 27.093,21.6 24,21.6C20.907,21.6 18.4,19.093 18.4,16C18.4,12.907 20.907,10.4 24,10.4C27.093,10.4 29.6,12.907 29.6,16Z" clip-rule="evenodd" fill-rule="evenodd" fill="#FFFFFF"/>
<path d="M20,24.8C14.919,24.8 10.8,28.919 10.8,34L10.8,35.666C10.8,37.101 11.393,38.594 12.703,39.5C15.072,41.139 19.216,43.2 24,43.2C28.784,43.2 32.928,41.139 35.297,39.5C36.607,38.594 37.2,37.101 37.2,35.666L37.2,34C37.2,28.919 33.081,24.8 28,24.8L20,24.8ZM13.2,34C13.2,30.244 16.244,27.2 20,27.2L28,27.2C31.755,27.2 34.8,30.244 34.8,34L34.8,35.666C34.8,36.477 34.469,37.155 33.932,37.527C31.801,39 28.129,40.8 24,40.8C19.87,40.8 16.199,39 14.068,37.527C13.531,37.155 13.2,36.477 13.2,35.666L13.2,34Z" clip-rule="evenodd" fill-rule="evenodd" fill="#FFFFFF"/>
</svg>
